<?xml version="1.0" standalone="no"?>
<!DOCTYPE svg PUBLIC "-//W3C//DTD SVG 20010904//EN"
 "http://www.w3.org/TR/2001/REC-SVG-20010904/DTD/svg10.dtd">
<svg version="1.0" xmlns="http://www.w3.org/2000/svg"
 width="1266.000000pt" height="1288.000000pt" viewBox="0 0 1266.000000 1288.000000"
 preserveAspectRatio="xMidYMid meet">

<g transform="translate(0.000000,1288.000000) scale(0.100000,-0.100000)"
fill="#000000" stroke="none">
<path d="M7740 12465 c-806 -112 -1725 -703 -2694 -1734 -900 -957 -1804
-2177 -2823 -3811 -430 -690 -1053 -1747 -1053 -1787 0 -26 107 -431 185 -700
553 -1904 1240 -3122 2075 -3676 881 -585 1942 -397 3132 557 479 385 1016
926 1534 1546 932 1117 1936 2608 3031 4505 l185 319 -33 136 c-246 1030 -580
2007 -924 2705 -274 557 -529 935 -854 1268 -333 341 -670 545 -1056 641 -184
46 -499 59 -705 31z m425 -75 c237 -23 412 -73 640 -185 958 -468 1735 -1851
2320 -4129 l64 -249 -1277 1274 c-702 700 -1285 1280 -1295 1289 -10 9 -42 90
-73 181 -133 397 -299 647 -531 799 -246 162 -539 183 -863 63 -648 -239
-1400 -1069 -2046 -2258 l-104 -190 -1791 -1790 c-985 -984 -1785 -1779 -1778
-1765 6 14 108 188 225 387 1210 2054 2316 3623 3329 4723 186 202 605 615
770 759 597 522 1158 863 1657 1007 274 78 519 106 753 84z m-397 -992 c247
-76 447 -269 592 -572 49 -104 115 -274 108 -281 -2 -2 -204 196 -448 441
l-445 446 63 -7 c35 -3 94 -15 130 -27z m-673 -310 c-182 -183 -680 -684
-1109 -1113 -874 -876 -818 -832 -599 -467 629 1049 1324 1736 1918 1892 141
38 148 48 -210 -312z m899 -187 c301 -301 473 -480 465 -483 -71 -28 -3196
-1291 -3204 -1295 -5 -3 498 504 1120 1126 621 622 1132 1131 1135 1131 3 0
220 -215 484 -479z m418 -613 c-23 -39 45 72 -1262 -2053 -564 -918 -1039
-1690 -1054 -1714 -21 -33 -30 -41 -36 -30 -29 52 -940 2483 -933 2490 6 6
3286 1336 3301 1338 2 1 -5 -14 -16 -31z m147 -88 c64 -322 85 -577 85 -1020
-1 -477 -27 -819 -104 -1328 -163 -1088 -508 -2262 -976 -3321 -98 -221 -308
-652 -388 -796 l-45 -80 -11 30 c-275 722 -1012 2674 -1013 2685 -1 13 414
690 2122 3467 163 265 299 478 303 475 3 -4 16 -54 27 -112z m2428 -2285 l222
-220 -1964 -1970 -1964 -1970 107 215 c509 1020 904 2171 1131 3295 217 1073
266 2075 140 2830 -11 66 -23 131 -26 145 -3 16 360 -339 1063 -1040 588 -586
1169 -1165 1291 -1285z m-5453 -268 c262 -691 476 -1259 476 -1261 0 -6 -2239
-3648 -2250 -3659 -9 -10 -24 72 -44 243 -63 538 -42 1213 59 1925 156 1094
493 2268 962 3344 83 191 314 674 319 668 2 -1 217 -568 478 -1260z m-714 970
c-597 -1251 -1044 -2812 -1175 -4107 -33 -331 -39 -468 -39 -855 0 -402 9
-572 48 -829 l13 -88 -1198 1198 -1199 1199 678 680 c1151 1156 2937 2945
2939 2945 1 0 -29 -64 -67 -143z m6222 -1229 c-11 -18 -89 -152 -175 -298
-1129 -1935 -2218 -3496 -3210 -4605 -201 -225 -655 -680 -847 -850 -1362
-1203 -2496 -1439 -3453 -719 -818 615 -1498 1938 -2036 3964 l-31 115 483
-480 c265 -264 805 -802 1200 -1196 l718 -715 29 -119 c133 -558 368 -924 693
-1079 118 -57 196 -76 332 -83 191 -9 350 30 580 142 549 267 1142 910 1696
1838 l121 202 1957 1958 c1076 1076 1957 1957 1959 1957 2 0 -5 -15 -16 -32z
m-4532 -2318 c249 -657 479 -1266 512 -1354 l60 -159 -1058 -1058 -1059 -1059
-588 588 -588 588 64 105 c36 57 522 849 1082 1759 559 910 1038 1688 1063
1728 24 40 48 70 52 65 5 -4 212 -546 460 -1203z m376 -1838 c-8 -15 -77 -122
-154 -238 -153 -230 -311 -444 -459 -622 -131 -158 -444 -470 -573 -572 -187
-148 -385 -267 -549 -329 l-55 -21 54 58 c71 74 1744 1752 1748 1752 1 0 -4
-13 -12 -28z m-2006 -1826 c0 -18 -241 1 -315 24 -282 89 -492 312 -649 692
-31 75 -93 267 -110 343 -6 23 113 -90 533 -510 298 -297 541 -544 541 -549z"/>
</g>
</svg>
